<svg width="662" height="517" viewBox="0 0 662 517" fill="none" xmlns="http://www.w3.org/2000/svg">
<rect x="0.5" y="1.84741" width="120.264" height="59.6321" rx="1.5" stroke="#FF0000"/>
<rect x="144.67" y="150.059" width="121.612" height="59.6321" rx="1.5" stroke="#FF0000" stroke-dasharray="2 2"/>
<rect x="24.7529" y="275.366" width="121.612" height="59.6321" rx="1.5" stroke="#FF0000"/>
<rect x="195.87" y="393.935" width="60.9795" height="59.6321" rx="1.5" stroke="#FF0000" stroke-dasharray="2 2"/>
<rect x="257.85" y="275.366" width="60.9795" height="59.6321" rx="1.5" stroke="#FF0000"/>
<rect x="372.377" y="77.3008" width="60.9795" height="133.738" rx="1.5" stroke="#FF0000"/>
<rect x="544.842" y="259.197" width="60.9795" height="58.2848" rx="1.5" stroke="#FF0000" stroke-dasharray="2 2"/>
<rect x="476.125" y="486.905" width="60.9795" height="27.295" rx="1.5" stroke="#FF0000"/>
<rect x="581.221" y="62.4795" width="79.8429" height="60.9795" rx="1.5" stroke="#FF0000"/>
<rect x="233.597" y="0.5" width="79.8429" height="60.9795" rx="1.5" stroke="#FF0000" stroke-dasharray="2 2"/>
<path d="M75.1939 304.97L77.5109 299.682L71.7727 300.319L75.1939 304.97ZM44.2897 31.3594L44.3999 32.351L45.3937 32.2405L45.2836 31.249L44.2897 31.3594ZM44.6202 34.334L44.8405 36.3171L45.8344 36.2067L45.6141 34.2236L44.6202 34.334ZM45.0609 38.3002L45.2812 40.2833L46.2751 40.1729L46.0548 38.1898L45.0609 38.3002ZM45.5016 42.2664L45.7219 44.2495L46.7158 44.139L46.4954 42.1559L45.5016 42.2664ZM45.9422 46.2325L46.1626 48.2156L47.1565 48.1052L46.9361 46.1221L45.9422 46.2325ZM46.3829 50.1987L46.6033 52.1818L47.5972 52.0714L47.3768 50.0883L46.3829 50.1987ZM46.8236 54.1649L47.044 56.148L48.0378 56.0375L47.8175 54.0545L46.8236 54.1649ZM47.2643 58.1311L47.4846 60.1141L48.4785 60.0037L48.2582 58.0206L47.2643 58.1311ZM47.705 62.0972L47.9253 64.0803L48.9192 63.9699L48.6989 61.9868L47.705 62.0972ZM48.1457 66.0634L48.366 68.0465L49.3599 67.936L49.1396 65.953L48.1457 66.0634ZM48.5864 70.0296L48.8067 72.0127L49.8006 71.9022L49.5802 69.9191L48.5864 70.0296ZM49.027 73.9957L49.2474 75.9788L50.2413 75.8684L50.0209 73.8853L49.027 73.9957ZM49.4677 77.9619L49.6881 79.945L50.682 79.8346L50.4616 77.8515L49.4677 77.9619ZM49.9084 81.9281L50.1288 83.9112L51.1226 83.8007L50.9023 81.8176L49.9084 81.9281ZM50.3491 85.8942L50.5694 87.8773L51.5633 87.7669L51.343 85.7838L50.3491 85.8942ZM50.7898 89.8604L51.0101 91.8435L52.004 91.7331L51.7837 89.75L50.7898 89.8604ZM51.2305 93.8266L51.4508 95.8097L52.4447 95.6992L52.2244 93.7162L51.2305 93.8266ZM51.6712 97.7928L51.8915 99.7758L52.8854 99.6654L52.665 97.6823L51.6712 97.7928ZM52.1118 101.759L52.3322 103.742L53.3261 103.632L53.1057 101.648L52.1118 101.759ZM52.5525 105.725L52.7729 107.708L53.7668 107.598L53.5464 105.615L52.5525 105.725ZM52.9932 109.691L53.2136 111.674L54.2074 111.564L53.9871 109.581L52.9932 109.691ZM53.4339 113.657L53.6542 115.64L54.6481 115.53L54.4278 113.547L53.4339 113.657ZM53.8746 117.624L54.0949 119.607L55.0888 119.496L54.8685 117.513L53.8746 117.624ZM54.3153 121.59L54.5356 123.573L55.5295 123.462L55.3092 121.479L54.3153 121.59ZM54.756 125.556L54.9763 127.539L55.9702 127.429L55.7498 125.445L54.756 125.556ZM55.1966 129.522L55.417 131.505L56.4109 131.395L56.1905 129.412L55.1966 129.522ZM55.6373 133.488L55.8577 135.471L56.8516 135.361L56.6312 133.378L55.6373 133.488ZM56.078 137.454L56.2984 139.437L57.2922 139.327L57.0719 137.344L56.078 137.454ZM56.5187 141.421L56.739 143.404L57.7329 143.293L57.5126 141.31L56.5187 141.421ZM56.9594 145.387L57.1797 147.37L58.1736 147.259L57.9533 145.276L56.9594 145.387ZM57.4001 149.353L57.6204 151.336L58.6143 151.226L58.3939 149.242L57.4001 149.353ZM57.8407 153.319L58.0611 155.302L59.055 155.192L58.8346 153.209L57.8407 153.319ZM58.2814 157.285L58.5018 159.268L59.4957 159.158L59.2753 157.175L58.2814 157.285ZM58.7221 161.251L58.9425 163.234L59.9363 163.124L59.716 161.141L58.7221 161.251ZM59.1628 165.218L59.3831 167.201L60.377 167.09L60.1567 165.107L59.1628 165.218ZM59.6035 169.184L59.8238 171.167L60.8177 171.056L60.5974 169.073L59.6035 169.184ZM60.0442 173.15L60.2645 175.133L61.2584 175.022L61.0381 173.039L60.0442 173.15ZM60.4849 177.116L60.7052 179.099L61.6991 178.989L61.4787 177.006L60.4849 177.116ZM60.9255 181.082L61.1459 183.065L62.1398 182.955L61.9194 180.972L60.9255 181.082ZM61.3662 185.048L61.5866 187.031L62.5805 186.921L62.3601 184.938L61.3662 185.048ZM61.8069 189.014L62.0273 190.998L63.0211 190.887L62.8008 188.904L61.8069 189.014ZM62.2476 192.981L62.4679 194.964L63.4618 194.853L63.2415 192.87L62.2476 192.981ZM62.6883 196.947L62.9086 198.93L63.9025 198.819L63.6822 196.836L62.6883 196.947ZM63.129 200.913L63.3493 202.896L64.3432 202.786L64.1228 200.803L63.129 200.913ZM63.5697 204.879L63.79 206.862L64.7839 206.752L64.5635 204.769L63.5697 204.879ZM64.0103 208.845L64.2307 210.828L65.2246 210.718L65.0042 208.735L64.0103 208.845ZM64.451 212.811L64.6714 214.795L65.6652 214.684L65.4449 212.701L64.451 212.811ZM64.8917 216.778L65.112 218.761L66.1059 218.65L65.8856 216.667L64.8917 216.778ZM65.3324 220.744L65.5527 222.727L66.5466 222.616L66.3263 220.633L65.3324 220.744ZM65.7731 224.71L65.9934 226.693L66.9873 226.583L66.767 224.6L65.7731 224.71ZM66.2138 228.676L66.4341 230.659L67.428 230.549L67.2076 228.566L66.2138 228.676ZM66.6544 232.642L66.8748 234.625L67.8687 234.515L67.6483 232.532L66.6544 232.642ZM67.0951 236.608L67.3155 238.592L68.3094 238.481L68.089 236.498L67.0951 236.608ZM67.5358 240.575L67.7562 242.558L68.75 242.447L68.5297 240.464L67.5358 240.575ZM67.9765 244.541L68.1968 246.524L69.1907 246.413L68.9704 244.43L67.9765 244.541ZM68.4172 248.507L68.6375 250.49L69.6314 250.38L69.4111 248.396L68.4172 248.507ZM68.8579 252.473L69.0782 254.456L70.0721 254.346L69.8518 252.363L68.8579 252.473ZM69.2986 256.439L69.5189 258.422L70.5128 258.312L70.2924 256.329L69.2986 256.439ZM69.7392 260.405L69.9596 262.389L70.9535 262.278L70.7331 260.295L69.7392 260.405ZM70.1799 264.372L70.4003 266.355L71.3941 266.244L71.1738 264.261L70.1799 264.372ZM70.6206 268.338L70.8409 270.321L71.8348 270.21L71.6145 268.227L70.6206 268.338ZM71.0613 272.304L71.2816 274.287L72.2755 274.177L72.0552 272.193L71.0613 272.304ZM71.502 276.27L71.7223 278.253L72.7162 278.143L72.4959 276.16L71.502 276.27ZM71.9427 280.236L72.163 282.219L73.1569 282.109L72.9365 280.126L71.9427 280.236ZM72.3833 284.202L72.6037 286.185L73.5976 286.075L73.3772 284.092L72.3833 284.202ZM72.824 288.169L73.0444 290.152L74.0383 290.041L73.8179 288.058L72.824 288.169ZM73.2647 292.135L73.4851 294.118L74.4789 294.007L74.2586 292.024L73.2647 292.135ZM73.7054 296.101L73.9258 298.084L74.9196 297.974L74.6993 295.991L73.7054 296.101ZM74.1461 300.067L74.3664 302.05L75.3603 301.94L75.14 299.957L74.1461 300.067Z" fill="#FF0000"/>
<path d="M188.197 180.099L187.303 174.395L182.81 178.021L188.197 180.099ZM74.3965 39.8819L184.981 176.911L185.76 176.283L75.1747 39.2539L74.3965 39.8819Z" fill="#FF0000"/>
<path d="M257.229 19.8441L252.168 17.0667L252.293 22.8388L257.229 19.8441ZM106.026 23.6312L252.741 20.4418L252.72 19.442L106.004 22.6315L106.026 23.6312Z" fill="#FF0000"/>
<path d="M556.371 288.579L553.995 283.317L550.626 288.005L556.371 288.579ZM392.537 171.465L552.425 286.359L553.008 285.547L393.121 170.653L392.537 171.465Z" fill="#FF0000"/>
<path d="M590.888 82.3024L585.722 79.7242L586.072 85.4871L590.888 82.3024ZM415.049 93.4852L586.426 83.0744L586.366 82.0762L414.988 92.487L415.049 93.4852Z" fill="#FF0000"/>
<path d="M295.077 20.2107L299.168 24.2838L300.65 18.7036L295.077 20.2107ZM299.298 21.8487L609.598 104.232L609.854 103.265L299.554 20.8822L299.298 21.8487Z" fill="#FF0000"/>
<path d="M106.443 39.074L110.09 43.5501L112.143 38.154L106.443 39.074ZM382.834 143.702L110.827 40.2069L110.471 41.1415L382.478 144.637L382.834 143.702Z" fill="#FF0000"/>
<path d="M599.928 109.422L596.247 113.871L601.94 114.834L599.928 109.422ZM572.479 274.691L599.67 113.943L598.684 113.776L571.493 274.525L572.479 274.691Z" fill="#FF0000"/>
<path d="M506.615 498.531L507.553 492.834L502.151 494.87L506.615 498.531ZM392.361 196.711L504.561 494.496L505.496 494.144L393.297 196.359L392.361 196.711Z" fill="#FF0000"/>
<path d="M528.173 501.226L532.075 496.97L526.439 495.719L528.173 501.226ZM571.252 304.907L528.661 496.724L529.637 496.941L572.228 305.124L571.252 304.907Z" fill="#FF0000"/>
<path d="M390.741 134.738L389.462 129.108L385.226 133.03L390.741 134.738ZM294.666 31.6893L387.317 131.775L388.051 131.096L295.4 31.0099L294.666 31.6893Z" fill="#FF0000"/>
<path d="M390.741 158.991L385.425 156.737L386.131 162.467L390.741 158.991ZM219.487 180.595L220.483 180.472L220.361 179.48L219.365 179.602L219.487 180.595ZM222.475 180.227L224.467 179.981L224.345 178.989L222.353 179.234L222.475 180.227ZM226.459 179.736L228.451 179.49L228.329 178.498L226.337 178.743L226.459 179.736ZM230.443 179.245L232.435 179L232.313 178.007L230.321 178.252L230.443 179.245ZM234.427 178.754L236.419 178.509L236.297 177.516L234.305 177.762L234.427 178.754ZM238.411 178.263L240.403 178.018L240.281 177.025L238.289 177.271L238.411 178.263ZM242.395 177.772L244.387 177.527L244.265 176.534L242.273 176.78L242.395 177.772ZM246.379 177.281L248.371 177.036L248.249 176.044L246.257 176.289L246.379 177.281ZM250.363 176.791L252.355 176.545L252.233 175.553L250.241 175.798L250.363 176.791ZM254.347 176.3L256.34 176.054L256.217 175.062L254.225 175.307L254.347 176.3ZM258.332 175.809L260.324 175.563L260.201 174.571L258.209 174.816L258.332 175.809ZM262.316 175.318L264.308 175.073L264.185 174.08L262.193 174.325L262.316 175.318ZM266.3 174.827L268.292 174.582L268.169 173.589L266.177 173.835L266.3 174.827ZM270.284 174.336L272.276 174.091L272.153 173.098L270.161 173.344L270.284 174.336ZM274.268 173.845L276.26 173.6L276.138 172.607L274.146 172.853L274.268 173.845ZM278.252 173.354L280.244 173.109L280.122 172.116L278.13 172.362L278.252 173.354ZM282.236 172.864L284.228 172.618L284.106 171.626L282.114 171.871L282.236 172.864ZM286.22 172.373L288.212 172.127L288.09 171.135L286.098 171.38L286.22 172.373ZM290.204 171.882L292.196 171.636L292.074 170.644L290.082 170.889L290.204 171.882ZM294.188 171.391L296.18 171.145L296.058 170.153L294.066 170.398L294.188 171.391ZM298.172 170.9L300.164 170.655L300.042 169.662L298.05 169.908L298.172 170.9ZM302.156 170.409L304.148 170.164L304.026 169.171L302.034 169.417L302.156 170.409ZM306.14 169.918L308.132 169.673L308.01 168.68L306.018 168.926L306.14 169.918ZM310.124 169.427L312.116 169.182L311.994 168.189L310.002 168.435L310.124 169.427ZM314.108 168.937L316.1 168.691L315.978 167.699L313.986 167.944L314.108 168.937ZM318.093 168.446L320.085 168.2L319.962 167.208L317.97 167.453L318.093 168.446ZM322.077 167.955L324.069 167.709L323.946 166.717L321.954 166.962L322.077 167.955ZM326.061 167.464L328.053 167.218L327.93 166.226L325.938 166.471L326.061 167.464ZM330.045 166.973L332.037 166.728L331.914 165.735L329.922 165.981L330.045 166.973ZM334.029 166.482L336.021 166.237L335.899 165.244L333.906 165.49L334.029 166.482ZM338.013 165.991L340.005 165.746L339.883 164.753L337.891 164.999L338.013 165.991ZM341.997 165.5L343.989 165.255L343.867 164.262L341.875 164.508L341.997 165.5ZM345.981 165.009L347.973 164.764L347.851 163.772L345.859 164.017L345.981 165.009ZM349.965 164.519L351.957 164.273L351.835 163.281L349.843 163.526L349.965 164.519ZM353.949 164.028L355.941 163.782L355.819 162.79L353.827 163.035L353.949 164.028ZM357.933 163.537L359.925 163.291L359.803 162.299L357.811 162.544L357.933 163.537ZM361.917 163.046L363.909 162.801L363.787 161.808L361.795 162.053L361.917 163.046ZM365.901 162.555L367.893 162.31L367.771 161.317L365.779 161.563L365.901 162.555ZM369.885 162.064L371.877 161.819L371.755 160.826L369.763 161.072L369.885 162.064ZM373.869 161.573L375.861 161.328L375.739 160.335L373.747 160.581L373.869 161.573ZM377.853 161.082L379.846 160.837L379.723 159.845L377.731 160.09L377.853 161.082ZM381.838 160.592L383.83 160.346L383.707 159.354L381.715 159.599L381.838 160.592ZM385.822 160.101L387.814 159.855L387.691 158.863L385.699 159.108L385.822 160.101Z" fill="#FF0000"/>
<path d="M231.75 407.806L236.752 404.924L231.755 402.033L231.75 407.806ZM234.436 404.162L283.383 319.58L282.517 319.079L233.571 403.661L234.436 404.162Z" fill="#FF0000"/>
<path d="M171.117 192.675L165.739 194.774L170.245 198.383L171.117 192.675ZM86.6227 298.981L168.695 196.5L167.914 195.875L85.8422 298.356L86.6227 298.981Z" fill="#FF0000"/>
<path d="M273.518 39.0739L273.076 44.8305L278.282 42.3351L273.518 39.0739ZM492.245 494.273L275.914 42.9158L275.012 43.348L491.343 494.705L492.245 494.273Z" fill="#FF0000"/>
<path d="M273.666 305.015L268.531 302.376L268.813 308.143L273.666 305.015ZM88.7813 314.555L269.196 305.734L269.147 304.736L88.7324 313.556L88.7813 314.555Z" fill="#FF0000"/>
<path d="M485.057 507.963L483.365 502.443L479.431 506.668L485.057 507.963ZM290.583 327.57L291.318 328.255L292 327.523L291.265 326.838L290.583 327.57ZM292.789 329.624L294.26 330.994L294.941 330.262L293.471 328.892L292.789 329.624ZM295.731 332.363L297.201 333.732L297.883 333.001L296.412 331.631L295.731 332.363ZM298.672 335.102L300.143 336.471L300.824 335.739L299.353 334.37L298.672 335.102ZM301.613 337.841L303.084 339.21L303.766 338.478L302.295 337.109L301.613 337.841ZM304.555 340.579L306.026 341.949L306.707 341.217L305.236 339.848L304.555 340.579ZM307.496 343.318L308.967 344.688L309.648 343.956L308.178 342.586L307.496 343.318ZM310.438 346.057L311.908 347.426L312.59 346.694L311.119 345.325L310.438 346.057ZM313.379 348.796L314.85 350.165L315.531 349.433L314.061 348.064L313.379 348.796ZM316.32 351.534L317.791 352.904L318.473 352.172L317.002 350.803L316.32 351.534ZM319.262 354.273L320.733 355.643L321.414 354.911L319.943 353.541L319.262 354.273ZM322.203 357.012L323.674 358.381L324.355 357.649L322.885 356.28L322.203 357.012ZM325.145 359.751L326.615 361.12L327.297 360.388L325.826 359.019L325.145 359.751ZM328.086 362.489L329.557 363.859L330.238 363.127L328.768 361.758L328.086 362.489ZM331.028 365.228L332.498 366.598L333.18 365.866L331.709 364.496L331.028 365.228ZM333.969 367.967L335.44 369.336L336.121 368.605L334.65 367.235L333.969 367.967ZM336.91 370.706L338.381 372.075L339.063 371.343L337.592 369.974L336.91 370.706ZM339.852 373.445L341.322 374.814L342.004 374.082L340.533 372.713L339.852 373.445ZM342.793 376.183L344.264 377.553L344.945 376.821L343.475 375.451L342.793 376.183ZM345.735 378.922L347.205 380.291L347.887 379.56L346.416 378.19L345.735 378.922ZM348.676 381.661L350.147 383.03L350.828 382.298L349.357 380.929L348.676 381.661ZM351.617 384.4L353.088 385.769L353.77 385.037L352.299 383.668L351.617 384.4ZM354.559 387.138L356.03 388.508L356.711 387.776L355.24 386.406L354.559 387.138ZM357.5 389.877L358.971 391.246L359.652 390.515L358.182 389.145L357.5 389.877ZM360.442 392.616L361.912 393.985L362.594 393.253L361.123 391.884L360.442 392.616ZM363.383 395.355L364.854 396.724L365.535 395.992L364.065 394.623L363.383 395.355ZM366.324 398.093L367.795 399.463L368.477 398.731L367.006 397.361L366.324 398.093ZM369.266 400.832L370.737 402.201L371.418 401.47L369.947 400.1L369.266 400.832ZM372.207 403.571L373.678 404.94L374.359 404.208L372.889 402.839L372.207 403.571ZM375.149 406.31L376.619 407.679L377.301 406.947L375.83 405.578L375.149 406.31ZM378.09 409.048L379.561 410.418L380.242 409.686L378.772 408.317L378.09 409.048ZM381.032 411.787L382.502 413.157L383.184 412.425L381.713 411.055L381.032 411.787ZM383.973 414.526L385.444 415.895L386.125 415.163L384.654 413.794L383.973 414.526ZM386.914 417.265L388.385 418.634L389.067 417.902L387.596 416.533L386.914 417.265ZM389.856 420.003L391.326 421.373L392.008 420.641L390.537 419.272L389.856 420.003ZM392.797 422.742L394.268 424.112L394.949 423.38L393.479 422.01L392.797 422.742ZM395.739 425.481L397.209 426.85L397.891 426.118L396.42 424.749L395.739 425.481ZM398.68 428.22L400.151 429.589L400.832 428.857L399.361 427.488L398.68 428.22ZM401.621 430.958L403.092 432.328L403.774 431.596L402.303 430.227L401.621 430.958ZM404.563 433.697L406.034 435.067L406.715 434.335L405.244 432.965L404.563 433.697ZM407.504 436.436L408.975 437.805L409.656 437.073L408.186 435.704L407.504 436.436ZM410.446 439.175L411.916 440.544L412.598 439.812L411.127 438.443L410.446 439.175ZM413.387 441.913L414.858 443.283L415.539 442.551L414.069 441.182L413.387 441.913ZM416.328 444.652L417.799 446.022L418.481 445.29L417.01 443.92L416.328 444.652ZM419.27 447.391L420.741 448.76L421.422 448.029L419.951 446.659L419.27 447.391ZM422.211 450.13L423.682 451.499L424.363 450.767L422.893 449.398L422.211 450.13ZM425.153 452.869L426.623 454.238L427.305 453.506L425.834 452.137L425.153 452.869ZM428.094 455.607L429.565 456.977L430.246 456.245L428.776 454.875L428.094 455.607ZM431.036 458.346L432.506 459.715L433.188 458.984L431.717 457.614L431.036 458.346ZM433.977 461.085L435.448 462.454L436.129 461.722L434.658 460.353L433.977 461.085ZM436.918 463.824L438.389 465.193L439.071 464.461L437.6 463.092L436.918 463.824ZM439.86 466.562L441.331 467.932L442.012 467.2L440.541 465.83L439.86 466.562ZM442.801 469.301L444.272 470.67L444.953 469.939L443.483 468.569L442.801 469.301ZM445.743 472.04L447.213 473.409L447.895 472.677L446.424 471.308L445.743 472.04ZM448.684 474.779L450.155 476.148L450.836 475.416L449.365 474.047L448.684 474.779ZM451.625 477.517L453.096 478.887L453.778 478.155L452.307 476.785L451.625 477.517ZM454.567 480.256L456.038 481.625L456.719 480.894L455.248 479.524L454.567 480.256ZM457.508 482.995L458.979 484.364L459.66 483.632L458.19 482.263L457.508 482.995ZM460.45 485.734L461.92 487.103L462.602 486.371L461.131 485.002L460.45 485.734ZM463.391 488.472L464.862 489.842L465.543 489.11L464.073 487.741L463.391 488.472ZM466.333 491.211L467.803 492.581L468.485 491.849L467.014 490.479L466.333 491.211ZM469.274 493.95L470.745 495.319L471.426 494.587L469.955 493.218L469.274 493.95ZM472.215 496.689L473.686 498.058L474.367 497.326L472.897 495.957L472.215 496.689ZM475.157 499.427L476.627 500.797L477.309 500.065L475.838 498.696L475.157 499.427ZM478.098 502.166L479.569 503.536L480.25 502.804L478.78 501.434L478.098 502.166ZM481.04 504.905L482.51 506.274L483.192 505.542L481.721 504.173L481.04 504.905Z" fill="#FF0000"/>
<path d="M65.7457 318.164L68.0914 323.44L71.4873 318.771L65.7457 318.164ZM219.72 429.527L69.6791 320.407L69.0909 321.215L219.132 430.336L219.72 429.527Z" fill="#FF0000"/>
<path d="M556.468 304.508L550.757 303.664L552.881 309.032L556.468 304.508ZM552.1 305.699L239.65 429.35L240.018 430.28L552.468 306.629L552.1 305.699Z" fill="#FF0000"/>
</svg>
